<svg aria-hidden="true" style="position:absolute;width:0;height:0;overflow:hidden" xmlns="http://www.w3.org/2000/svg">
  <defs>
    <symbol id="icon-logo" viewBox="0 0 376 32">
      <path d="M65.724 5.565c.825-.835 1.925-1.391 3.025-1.391h.55c1.1 0 2.2.278 3.025.835s1.375 1.391 1.375 2.226.275 1.113.825 1.391.825.557 1.375.557 1.1-.278 1.375-.557c.55-.278.55-.835.55-1.67v.278c0-1.113-.275-1.948-.825-2.783s-1.1-1.67-1.925-2.226c-.825-.557-1.65-1.113-2.75-1.391-.55-.557-1.65-.835-3.025-.835h-.55c-1.1 0-2.475.278-3.3.557-1.1.557-1.925 1.113-2.75 1.948s-1.375 1.67-1.925 2.783-.825 2.226-.825 3.339v14.47c0 1.113.275 2.504.825 3.339.55 1.113 1.1 1.948 1.925 2.782s1.65 1.391 2.75 1.948c1.1.557 2.2.557 3.575.557h.55c1.1 0 2.475-.278 3.3-.835 1.1-.557 1.925-1.113 2.75-1.948s1.375-1.669 1.925-2.782.825-2.226.825-3.617v-6.122c0-.557-.275-1.113-.55-1.67-.55-.557-.825-.557-1.65-.557h-5.775c-.825 0-1.375.278-1.65.557-.275.557-.55.835-.55 1.391s.275 1.113.55 1.391c.275.557.825.557 1.65.557h3.575v4.73c0 .557 0 1.113-.275 1.67s-.55 1.113-1.1 1.391c-.275.278-.825.835-1.375 1.113s-1.1.278-1.65.278h-.55c-1.1 0-2.2-.557-3.025-1.391s-1.375-1.948-1.375-3.061V8.626c-.275-1.113.275-2.226 1.1-3.061zm47.575 9.183c.55-.835.825-1.67 1.1-2.504s.275-1.948.275-2.783v-.278c0-1.113-.275-2.504-.825-3.339-.55-1.113-1.1-1.948-1.925-2.783s-1.65-1.391-2.75-1.948c-1.1-.557-2.2-.835-3.3-.835h-7.425c-.55 0-1.1.278-1.375.557-.55.557-.55.835-.55 1.391v27.548c0 .835.275 1.391.55 1.669.55.278.825.557 1.65.557.55 0 1.1-.278 1.375-.557.55-.278.55-.835.55-1.669V18.365h3.575l5.775 12.522c.275.556.55.835.825.835.275.278.55.278 1.1.278.825 0 1.375-.278 1.65-.557s.55-.835.55-1.669c0-.278 0-.557-.275-.835l-5.225-10.852c1.375-.278 2.2-.835 3.025-1.391.55-.557 1.1-1.113 1.65-1.948zm-2.75-5.287c0 1.113-.275 2.226-1.1 3.061s-1.925 1.391-3.025 1.391h-5.5V4.73h5.225c1.1 0 2.2.557 3.025 1.391s1.375 1.948 1.375 3.339zm37.674-6.957c-.825-.835-1.65-1.391-2.75-1.948-1.1-.278-2.2-.557-3.575-.557h-.275c-1.1 0-2.475.278-3.575.557-1.1.557-1.925 1.113-2.75 1.948s-1.375 1.67-1.925 2.783-.825 2.226-.825 3.339v14.47c0 1.113.275 2.504.825 3.339.55 1.113 1.1 1.948 1.925 2.782s1.65 1.391 2.75 1.948c1.1.557 2.2.557 3.3.557h.55c1.1 0 2.475-.278 3.3-.557 1.1-.556 1.925-1.113 2.75-1.948s1.375-1.669 1.925-2.782.825-2.226.825-3.339V8.626c0-1.113-.275-2.226-.825-3.339-.275-1.113-.825-1.948-1.65-2.783zm-1.65 20.87c0 1.391-.55 2.226-1.375 3.061s-1.925 1.391-3.025 1.391h-.55c-1.1 0-2.2-.556-3.025-1.391s-1.375-1.948-1.375-3.061V8.626c0-1.113.55-2.226 1.375-3.061s1.925-1.391 3.025-1.391h.55c1.1 0 2.2.278 3.025 1.113s1.375 1.948 1.375 3.061v15.026zm33 6.678 6.6-27.27v-.557c0-.557-.275-1.113-.55-1.391-.55-.557-1.1-.835-1.65-.835s-.825 0-1.1.278c-.275.278-.55.557-.825 1.391l-4.95 20.87-4.95-20.87c-.275-.557-.55-1.113-.825-1.391s-.825-.278-1.1-.278c-.55 0-1.1.278-1.65.557-.55.557-.825 1.113-.825 1.67v.557l6.6 27.548c.275.557.55 1.113.825 1.391.55.278 1.1.556 1.65.556s1.1-.278 1.65-.556c.55-.557.825-.835 1.1-1.67zm26.675 1.67h13.751c.824 0 1.374-.278 1.649-.557.275-.556.55-.835.55-1.391s-.275-1.113-.55-1.391c-.275-.557-.824-.557-1.649-.557h-11.55V17.809h7.974c.826 0 1.376-.278 1.651-.557.275-.557.55-.835.55-1.391s-.275-1.113-.55-1.391c-.275-.557-.824-.557-1.651-.557h-7.974V4.73h11.55c.824 0 1.374-.278 1.649-.557.275-.557.55-.835.55-1.391s-.275-1.113-.55-1.391c-.275-.557-.824-.557-1.649-.557h-13.751c-.55 0-1.099.278-1.374.557-.552.557-.552.835-.552 1.391v27.27c0 .557.275 1.113.552 1.391.275 0 .824.278 1.374.278zm54.174-.279c.55.278.824.557 1.376.557.55 0 1.099-.278 1.374-.557.55-.278.55-.835.55-1.669V2.226c0-.557-.275-1.113-.55-1.391 0-.557-.55-.835-1.099-.835h-.55c-.552 0-1.101 0-1.376.278s-.55.557-.824 1.113l-6.6 15.026-6.601-15.026C245.572.556 245.023 0 243.923 0h-.552c-.55 0-1.099.278-1.374.557-.55.557-.55.835-.55 1.391v27.548c0 .835.275 1.391.55 1.669.55.278.824.557 1.374.557.552 0 1.101-.278 1.376-.557.55-.278.55-.835.55-1.669V10.018l4.951 11.409c.275.557.55.835.824 1.113s.824.278 1.374.278c.552 0 .826 0 1.376-.278s.824-.556.824-1.113l4.951-11.409v19.478c.275 1.113.55 1.669.824 1.948zm34.1-31.165C293.97 0 293.421 0 292.871 0s-1.099.278-1.374.557c-.552.278-.826.835-1.101 1.391l-8.525 27.548v.835c0 .557.275 1.113.552 1.391.275.278.824.556 1.649.556.55 0 .824 0 1.376-.278.55-.278.824-.557.824-1.113l1.924-6.122h9.901l1.924 6.122c.275.556.552.835.826 1.113s.824.278 1.099.278c.55 0 1.099-.278 1.651-.556.275-.278.55-.835.55-1.391v-.556l-8.525-27.548c-.275-1.113-.55-1.67-1.099-1.948zm-5.225 19.757 3.575-11.965 3.575 11.965h-7.149zm45.099-19.2c-1.099-.557-2.2-.557-3.3-.557h-7.151c-.55 0-1.099.278-1.374.557-.55.557-.55.835-.55 1.391v27.27c0 .556.275 1.113.55 1.391.55.556.824.556 1.374.556h7.151c1.099 0 2.475-.278 3.3-.556 1.099-.557 1.926-1.113 2.75-1.67s1.374-1.669 1.924-2.782c.552-1.113.826-2.226.826-3.617V9.183c0-1.391-.275-2.504-.826-3.617-.55-1.113-1.099-1.948-1.924-2.783-.55-.835-1.651-1.391-2.75-1.948zm1.1 21.982c0 .557 0 1.113-.275 1.67s-.55 1.113-1.099 1.391c-.275.278-.824.835-1.376 1.113-.55.278-1.099.278-1.649.278h-4.951V4.73h4.951c.55 0 1.099 0 1.649.278.552.278 1.101.557 1.376 1.113.275.278.824.835 1.099 1.391s.275 1.113.275 1.67v13.635zM374.27 4.73c.826 0 1.376-.278 1.651-.557.275-.557.55-.835.55-1.391s-.275-1.113-.55-1.391c-.275-.557-.824-.557-1.651-.557h-13.749c-.55 0-1.101.278-1.376.557-.55.557-.55.835-.55 1.391v27.27c0 .557.275 1.113.55 1.391.55.557.826.557 1.376.557h13.749c.826 0 1.376-.278 1.651-.557.275-.556.55-.835.55-1.391s-.275-1.113-.55-1.391c-.275-.557-.824-.557-1.651-.557h-11.55V17.808h7.976c.824 0 1.376-.278 1.651-.557.275-.557.55-.835.55-1.391s-.275-1.113-.55-1.391c-.275-.557-.826-.557-1.651-.557h-7.976V4.729h11.55zM21.725 31.165v-.278c0 .278-3.025-7.513-4.125-8.626-2.475-2.504-5.225-2.226-7.15-2.226H1.1c-.55 0-1.1.278-1.1.835v.278s3.025 7.791 4.125 8.626C6.325 32 8.25 32 11.275 32H20.9c.55 0 .825-.278.825-.835zm15.95-9.739c0-5.843-6.05-18.643-6.875-20.87 0-.278-.275-.557-.825-.557-.275 0-.825.278-.825.557C25.025 10.295 22 17.53 22 17.53c-.275.835-.55 1.67-.275 2.504s1.925 4.174 3.025 6.956c1.65 3.896 1.925 5.009 5.5 5.009 4.4 0 7.425-3.896 7.425-10.574z"/>
    </symbol>
    <symbol id="icon-dots" viewBox="0 0 2158 32">
      <path d="M1020.952 13.524h10.667v10.667h-10.667V13.524zm35.048 0h10.667v10.667H1056V13.524zm35.048 0h10.667v10.667h-10.667V13.524z"/>
    </symbol>
    <symbol id="icon-insta-menu" viewBox="0 0 32 32">
      <path d="M31.968 9.408c-.075-1.7-.35-2.869-.744-3.882a7.793 7.793 0 0 0-1.851-2.838A7.867 7.867 0 0 0 26.541.844C25.522.45 24.359.175 22.659.1 20.946.019 20.402 0 16.058 0S11.17.019 9.463.094c-1.7.075-2.869.35-3.882.744a7.803 7.803 0 0 0-2.838 1.85A7.867 7.867 0 0 0 .899 5.52C.505 6.539.23 7.702.155 9.402c-.081 1.713-.1 2.257-.1 6.601s.019 4.888.094 6.595c.075 1.7.35 2.869.744 3.882a7.895 7.895 0 0 0 1.85 2.838 7.867 7.867 0 0 0 2.832 1.844c1.019.394 2.182.669 3.882.744 1.706.075 2.25.094 6.595.094s4.888-.019 6.595-.094c1.7-.075 2.869-.35 3.882-.744a8.181 8.181 0 0 0 4.682-4.682c.394-1.019.669-2.182.744-3.882.075-1.707.094-2.25.094-6.595s-.006-4.888-.081-6.595zm-2.881 13.065c-.069 1.563-.331 2.407-.55 2.969a5.31 5.31 0 0 1-3.038 3.038c-.563.219-1.413.481-2.969.55-1.688.075-2.194.094-6.464.094s-4.782-.019-6.464-.094c-1.563-.069-2.407-.331-2.969-.55a4.926 4.926 0 0 1-1.838-1.194 4.974 4.974 0 0 1-1.194-1.838c-.219-.563-.481-1.413-.55-2.969-.075-1.688-.094-2.194-.094-6.464s.019-4.782.094-6.464c.069-1.563.331-2.407.55-2.969a4.868 4.868 0 0 1 1.2-1.838A4.974 4.974 0 0 1 6.639 3.55c.563-.219 1.413-.481 2.969-.55 1.688-.075 2.194-.094 6.464-.094 4.276 0 4.782.019 6.464.094 1.563.069 2.407.331 2.969.55a4.914 4.914 0 0 1 1.838 1.194 4.974 4.974 0 0 1 1.194 1.838c.219.563.481 1.413.55 2.969.075 1.688.094 2.194.094 6.464s-.019 4.77-.094 6.458z"/>
      <path d="M16.059 7.783c-4.538 0-8.22 3.682-8.22 8.22s3.682 8.22 8.22 8.22 8.22-3.682 8.22-8.22-3.682-8.22-8.22-8.22zm0 13.552a5.333 5.333 0 0 1 0-10.664 5.333 5.333 0 0 1 0 10.664zM26.525 7.458a1.919 1.919 0 1 1-3.838 0 1.919 1.919 0 0 1 3.838 0z"/>
    </symbol>
    <symbol id="icon-twitter-menu" viewBox="0 0 32 32">
      <path d="M32 6.078c-1.19.522-2.458.868-3.78 1.036a6.523 6.523 0 0 0 2.886-3.626 13.11 13.11 0 0 1-4.16 1.588A6.574 6.574 0 0 0 22.154 3c-3.632 0-6.556 2.948-6.556 6.562 0 .52.044 1.02.152 1.496-5.454-.266-10.28-2.88-13.522-6.862a6.605 6.605 0 0 0-.898 3.316 6.57 6.57 0 0 0 2.914 5.452 6.479 6.479 0 0 1-2.964-.808v.072c0 3.188 2.274 5.836 5.256 6.446a6.548 6.548 0 0 1-1.72.216 5.8 5.8 0 0 1-1.242-.112c.85 2.598 3.262 4.508 6.13 4.57a13.182 13.182 0 0 1-8.134 2.798c-.538 0-1.054-.024-1.57-.09A18.469 18.469 0 0 0 10.064 29c12.072 0 18.672-10 18.672-18.668 0-.29-.01-.57-.024-.848A13.087 13.087 0 0 0 32 6.078z"/>
    </symbol>
    <symbol id="icon-facebook-menu" viewBox="0 0 32 32">
      <path d="M21.329 5.313h2.921V.225C23.746.156 22.013 0 19.994 0c-4.212 0-7.097 2.649-7.097 7.519V12H8.249v5.688h4.648V32h5.699V17.689h4.46l.708-5.688h-5.169V8.082c.001-1.644.444-2.769 2.735-2.769z"/>
    </symbol>
    <symbol id="icon-Ellipse-menu" viewBox="0 0 32 32">
      <path d="M32 16c0 4.418-1.791 8.418-4.686 11.314S20.419 32 16 32c-4.418 0-8.418-1.791-11.314-4.686S0 20.419 0 16c0-4.418 1.791-8.418 4.686-11.314S11.581 0 16 0c4.418 0 8.418 1.791 11.314 4.686S32 11.581 32 16z"/>
      <path d="M25.595 25.6v-.001h.005v-7.042c0-3.445-.742-6.098-4.769-6.098-1.936 0-3.235 1.062-3.766 2.07h-.056v-1.748h-3.818v12.818h3.976v-6.347c0-1.671.317-3.287 2.386-3.287 2.039 0 2.07 1.907 2.07 3.394V25.6h3.972zM6.717 12.782h3.981V25.6H6.717V12.782zM8.706 6.4C7.433 6.4 6.4 7.433 6.4 8.706s1.033 2.327 2.306 2.327c1.273 0 2.306-1.054 2.306-2.327S9.978 6.4 8.706 6.4z"/>
    </symbol>
    <symbol id="icon-menu" viewBox="0 0 32 32">
      <path d="M4.799 8.001a1.6 1.6 0 0 1 1.6-1.6h19.2a1.6 1.6 0 0 1 0 3.2h-19.2a1.6 1.6 0 0 1-1.6-1.6zm0 8a1.6 1.6 0 0 1 1.6-1.6h19.2a1.6 1.6 0 0 1 0 3.2h-19.2a1.6 1.6 0 0 1-1.6-1.6zm0 8a1.6 1.6 0 0 1 1.6-1.6h19.2a1.6 1.6 0 0 1 0 3.2h-19.2a1.6 1.6 0 0 1-1.6-1.6z"/>
    </symbol>
    <symbol id="icon-Vector" viewBox="0 0 40 32">
      <path d="M33.782 1.02a3.668 3.668 0 0 1 5.115.039 3.712 3.712 0 0 1 .135 5.141L19.454 30.817a3.674 3.674 0 0 1-4.074.914 3.675 3.675 0 0 1-1.226-.815L1.17 17.862A3.693 3.693 0 0 1-.001 15.22a3.714 3.714 0 0 1 1.077-2.682 3.664 3.664 0 0 1 4.1-.763 3.68 3.68 0 0 1 1.195.857l10.275 10.325 17.042-21.83c.031-.038.063-.074.098-.109h-.005z"/>
    </symbol>
    <symbol id="icon-close" viewBox="0 0 32 32">
      <path d="M32 3.223 28.777 0 16 12.777 3.223 0 0 3.223 12.777 16 0 28.777 3.223 32 16 19.223 28.777 32 32 28.777 19.223 16 32 3.223z"/>
    </symbol>
    <symbol id="icon-close-black" viewBox="0 0 32 32">
      <path d="M32 3.223 28.777 0 16 12.777 3.223 0 0 3.223 12.777 16 0 28.777 3.223 32 16 19.223 28.777 32 32 28.777 19.223 16 32 3.223z"/>
    </symbol>
    <symbol id="icon-plane" viewBox="0 0 32 32">
      <path d="m32 2.667-32 15 10.227 3.156L26 8.5 14.002 21.988l.01.003-.012-.003v7.345l5.735-5.576L27 25.999l5-23.333z"/>
    </symbol>
    <symbol id="icon-Checkbox" viewBox="0 0 32 32">
      <path stroke-width="2" d="M4 1h24a3 3 0 0 1 3 3v24a3 3 0 0 1-3 3H4a3 3 0 0 1-3-3V4a3 3 0 0 1 3-3z"/>
    </symbol>
    <symbol id="icon-contact" viewBox="0 0 32 32">
      <path d="M12 16c2.21 0 4-1.79 4-4s-1.79-4-4-4-4 1.79-4 4 1.79 4 4 4zm0 2c-2.67 0-8 1.34-8 4v1c0 .55.45 1 1 1h14c.55 0 1-.45 1-1v-1c0-2.66-5.33-4-8-4z"/>
      <path stroke-linecap="round" stroke-width="1.667" d="M30.167 4.833v22.333"/>
    </symbol>
    <symbol id="icon-phone" viewBox="0 0 24 32">
      <path d="m19.635 18.487-2.451-.28a1.92 1.92 0 0 0-1.582.55l-1.775 1.775a14.514 14.514 0 0 1-6.359-6.359l1.785-1.785c.415-.415.618-.994.55-1.582l-.28-2.432a1.931 1.931 0 0 0-1.92-1.708H5.934c-1.09 0-1.997.907-1.93 1.997.511 8.24 7.102 14.821 15.332 15.332 1.09.068 1.997-.839 1.997-1.93v-1.669a1.913 1.913 0 0 0-1.698-1.911z"/>
    </symbol>
    <symbol id="icon-email" viewBox="0 0 24 32">
      <path d="M20 8H4c-1.1 0-1.99.9-1.99 2L2 22c0 1.1.9 2 2 2h16c1.1 0 2-.9 2-2V10c0-1.1-.9-2-2-2zm-.4 4.25-7.07 4.42c-.32.2-.74.2-1.06 0L4.4 12.25a.85.85 0 1 1 .9-1.44L12 15l6.7-4.19a.85.85 0 1 1 .9 1.44z"/>
    </symbol>
    <symbol id="icon-linkedin-footer" viewBox="0 0 32 32">
      <path d="M31.992 32v-.001H32V20.263c0-5.741-1.236-10.164-7.948-10.164-3.227 0-5.392 1.771-6.276 3.449h-.093v-2.913h-6.364v21.364h6.627V21.42c0-2.785.528-5.479 3.977-5.479 3.399 0 3.449 3.179 3.449 5.657v10.401h6.62zM.528 10.636h6.635V32H.528V10.636zM3.843 0C1.722 0 0 1.721 0 3.843s1.721 3.879 3.843 3.879c2.121 0 3.843-1.757 3.843-3.879A3.846 3.846 0 0 0 3.843 0z"/>
    </symbol>
    <symbol id="icon-facebook-footer" viewBox="0 0 32 32">
      <path d="M21.329 5.313h2.921V.225C23.746.156 22.013 0 19.994 0c-4.212 0-7.097 2.649-7.097 7.519V12H8.249v5.688h4.648V32h5.699V17.689h4.46l.708-5.688h-5.169V8.082c.001-1.644.444-2.769 2.735-2.769z"/>
    </symbol>
    <symbol id="icon-twitter-footer" viewBox="0 0 32 32">
      <path d="M32 6.078c-1.19.522-2.458.868-3.78 1.036a6.523 6.523 0 0 0 2.886-3.626 13.11 13.11 0 0 1-4.16 1.588A6.574 6.574 0 0 0 22.154 3c-3.632 0-6.556 2.948-6.556 6.562 0 .52.044 1.02.152 1.496-5.454-.266-10.28-2.88-13.522-6.862a6.605 6.605 0 0 0-.898 3.316 6.57 6.57 0 0 0 2.914 5.452 6.479 6.479 0 0 1-2.964-.808v.072c0 3.188 2.274 5.836 5.256 6.446a6.548 6.548 0 0 1-1.72.216 5.8 5.8 0 0 1-1.242-.112c.85 2.598 3.262 4.508 6.13 4.57a13.182 13.182 0 0 1-8.134 2.798c-.538 0-1.054-.024-1.57-.09A18.469 18.469 0 0 0 10.064 29c12.072 0 18.672-10 18.672-18.668 0-.29-.01-.57-.024-.848A13.087 13.087 0 0 0 32 6.078z"/>
    </symbol>
    <symbol id="icon-instagram-footer" viewBox="0 0 32 32">
      <path d="M31.969 9.408c-.075-1.7-.35-2.869-.744-3.882a7.793 7.793 0 0 0-1.851-2.838A7.867 7.867 0 0 0 26.542.844C25.523.45 24.361.175 22.66.1 20.947.019 20.403 0 16.059 0s-4.888.019-6.595.094c-1.7.075-2.869.35-3.882.744a7.803 7.803 0 0 0-2.838 1.85A7.867 7.867 0 0 0 .9 5.52C.506 6.539.231 7.702.156 9.402c-.081 1.713-.1 2.257-.1 6.601s.019 4.888.094 6.595c.075 1.7.35 2.869.744 3.882a7.895 7.895 0 0 0 1.85 2.838 7.867 7.867 0 0 0 2.832 1.844c1.019.394 2.182.669 3.882.744 1.706.075 2.25.094 6.595.094s4.888-.019 6.595-.094c1.7-.075 2.869-.35 3.882-.744a8.181 8.181 0 0 0 4.682-4.682c.394-1.019.669-2.182.744-3.882.075-1.707.094-2.25.094-6.595s-.006-4.888-.081-6.595zm-2.882 13.065c-.069 1.563-.331 2.407-.55 2.969a5.31 5.31 0 0 1-3.038 3.038c-.563.219-1.413.481-2.969.55-1.688.075-2.194.094-6.464.094s-4.782-.019-6.464-.094c-1.563-.069-2.407-.331-2.969-.55a4.926 4.926 0 0 1-1.838-1.194 4.974 4.974 0 0 1-1.194-1.838c-.219-.563-.481-1.413-.55-2.969-.075-1.688-.094-2.194-.094-6.464s.019-4.782.094-6.464c.069-1.563.331-2.407.55-2.969a4.868 4.868 0 0 1 1.2-1.838A4.974 4.974 0 0 1 6.639 3.55c.563-.219 1.413-.481 2.969-.55 1.688-.075 2.194-.094 6.464-.094 4.276 0 4.782.019 6.464.094 1.563.069 2.407.331 2.969.55a4.914 4.914 0 0 1 1.838 1.194 4.974 4.974 0 0 1 1.194 1.838c.219.563.481 1.413.55 2.969.075 1.688.094 2.194.094 6.464s-.019 4.77-.094 6.458z"/>
      <path d="M16.059 7.783c-4.538 0-8.22 3.682-8.22 8.22s3.682 8.22 8.22 8.22c4.539 0 8.22-3.682 8.22-8.22s-3.682-8.22-8.22-8.22zm0 13.552a5.333 5.333 0 0 1 0-10.664 5.332 5.332 0 0 1 0 10.664zM26.524 7.458a1.919 1.919 0 1 1-3.838 0 1.919 1.919 0 0 1 3.838 0z"/>
    </symbol>
    <symbol id="icon-linkedin-team" viewBox="0 0 32 32">
      <path d="M31.992 32v-.001H32V20.263c0-5.741-1.236-10.164-7.948-10.164-3.227 0-5.392 1.771-6.276 3.449h-.093v-2.913h-6.364v21.364h6.627V21.42c0-2.785.528-5.479 3.977-5.479 3.399 0 3.449 3.179 3.449 5.657v10.401h6.62zM.528 10.636h6.635V32H.528V10.636zM3.843 0C1.722 0 0 1.721 0 3.843s1.721 3.879 3.843 3.879c2.121 0 3.843-1.757 3.843-3.879A3.846 3.846 0 0 0 3.843 0z"/>
    </symbol>
    <symbol id="icon-facebook-team" viewBox="0 0 32 32">
      <path d="M21.329 5.313h2.921V.225C23.746.156 22.013 0 19.994 0c-4.212 0-7.097 2.649-7.097 7.519V12H8.249v5.688h4.648V32h5.699V17.689h4.46l.708-5.688h-5.169V8.082c.001-1.644.444-2.769 2.735-2.769z"/>
    </symbol>
    <symbol id="icon-twitter-team" viewBox="0 0 32 32">
      <path d="M32 6.078c-1.19.522-2.458.868-3.78 1.036a6.523 6.523 0 0 0 2.886-3.626 13.11 13.11 0 0 1-4.16 1.588A6.574 6.574 0 0 0 22.154 3c-3.632 0-6.556 2.948-6.556 6.562 0 .52.044 1.02.152 1.496-5.454-.266-10.28-2.88-13.522-6.862a6.605 6.605 0 0 0-.898 3.316 6.57 6.57 0 0 0 2.914 5.452 6.479 6.479 0 0 1-2.964-.808v.072c0 3.188 2.274 5.836 5.256 6.446a6.548 6.548 0 0 1-1.72.216 5.8 5.8 0 0 1-1.242-.112c.85 2.598 3.262 4.508 6.13 4.57a13.182 13.182 0 0 1-8.134 2.798c-.538 0-1.054-.024-1.57-.09A18.469 18.469 0 0 0 10.064 29c12.072 0 18.672-10 18.672-18.668 0-.29-.01-.57-.024-.848A13.087 13.087 0 0 0 32 6.078z"/>
    </symbol>
    <symbol id="icon-instagram-team" viewBox="0 0 32 32">
      <path d="M31.969 9.408c-.075-1.7-.35-2.869-.744-3.882a7.803 7.803 0 0 0-1.85-2.838A7.867 7.867 0 0 0 26.543.844C25.524.45 24.361.175 22.661.1 20.948.019 20.404 0 16.06 0s-4.888.019-6.595.094c-1.7.075-2.869.35-3.882.744a7.803 7.803 0 0 0-2.838 1.85A7.867 7.867 0 0 0 .901 5.52C.507 6.539.232 7.702.157 9.402c-.081 1.713-.1 2.257-.1 6.601s.019 4.888.094 6.595c.075 1.7.35 2.869.744 3.882a7.895 7.895 0 0 0 1.85 2.838 7.867 7.867 0 0 0 2.832 1.844c1.019.394 2.182.669 3.882.744 1.706.075 2.25.094 6.595.094s4.888-.019 6.595-.094c1.7-.075 2.869-.35 3.882-.744a8.181 8.181 0 0 0 4.682-4.682c.394-1.019.669-2.182.744-3.882.075-1.707.094-2.25.094-6.595s-.006-4.888-.081-6.595zm-2.882 13.065c-.069 1.563-.331 2.407-.55 2.969a5.31 5.31 0 0 1-3.038 3.038c-.563.219-1.413.481-2.969.55-1.688.075-2.194.094-6.464.094s-4.782-.019-6.464-.094c-1.563-.069-2.407-.331-2.969-.55a4.926 4.926 0 0 1-1.838-1.194 4.974 4.974 0 0 1-1.194-1.838c-.219-.563-.481-1.413-.55-2.969-.075-1.688-.094-2.194-.094-6.464s.019-4.782.094-6.464c.069-1.563.331-2.407.55-2.969a4.868 4.868 0 0 1 1.2-1.838A4.974 4.974 0 0 1 6.639 3.55c.563-.219 1.413-.481 2.969-.55 1.688-.075 2.194-.094 6.464-.094 4.276 0 4.782.019 6.464.094 1.563.069 2.407.331 2.969.55a4.914 4.914 0 0 1 1.838 1.194 4.974 4.974 0 0 1 1.194 1.838c.219.563.481 1.413.55 2.969.075 1.688.094 2.194.094 6.464s-.019 4.77-.094 6.458z"/>
      <path d="M16.059 7.783c-4.538 0-8.22 3.682-8.22 8.22s3.682 8.22 8.22 8.22 8.22-3.682 8.22-8.22-3.682-8.22-8.22-8.22zm0 13.552a5.333 5.333 0 0 1 0-10.664 5.333 5.333 0 0 1 0 10.664zM26.524 7.458a1.919 1.919 0 1 1-3.838 0 1.919 1.919 0 0 1 3.838 0z"/>
    </symbol>
    <symbol id="icon-youtube" viewBox="0 0 32 32">
      <path d="M31.681 9.6s-.313-2.206-1.275-3.175C29.187 5.15 27.825 5.144 27.2 5.069c-4.475-.325-11.194-.325-11.194-.325h-.012s-6.719 0-11.194.325c-.625.075-1.987.081-3.206 1.356C.631 7.394.325 9.6.325 9.6s-.319 2.588-.319 5.181v2.425c0 2.587.319 5.181.319 5.181s.313 2.206 1.269 3.175c1.219 1.275 2.819 1.231 3.531 1.369 2.563.244 10.881.319 10.881.319s6.725-.012 11.2-.331c.625-.075 1.988-.081 3.206-1.356.962-.969 1.275-3.175 1.275-3.175s.319-2.587.319-5.181v-2.425c-.006-2.588-.325-5.181-.325-5.181zM12.694 20.15v-8.994l8.644 4.513-8.644 4.481z"/>
    </symbol>
  </defs>
</svg>
